REM MD5 0f928d388387a82c8c6b08f887d0ef48
FILE "Checkmate (Europe).bin" BINARY
  TRACK 01 MODE2/2352
    INDEX 01 00:00:00
  TRACK 02 AUDIO
    INDEX 00 01:20:04
    INDEX 01 01:22:04
  TRACK 03 AUDIO
    INDEX 00 04:53:35
    INDEX 01 04:55:35
  TRACK 04 AUDIO
    INDEX 00 10:20:45
    INDEX 01 10:22:45
  TRACK 05 AUDIO
    INDEX 00 15:22:69
    INDEX 01 15:24:69
  TRACK 06 AUDIO
    INDEX 00 18:35:00
    INDEX 01 18:37:00
REM LEADOUT 22:04:12
